<svg width="269" height="169" viewBox="0 0 269 169" fill="none" xmlns="http://www.w3.org/2000/svg">
<g clip-path="url(#clip0_39_3564)">
<g filter="url(#filter0_b_39_3564)">
<rect width="269" height="169" fill="url(#paint0_linear_39_3564)"/>
</g>
<g filter="url(#filter1_f_39_3564)">
<ellipse opacity="0.5" cx="226.147" cy="187.465" rx="115.42" ry="115.483" fill="#69FF93"/>
<ellipse opacity="0.5" cx="314.98" cy="32.2352" rx="180.48" ry="180.58" fill="#8769FF" fill-opacity="0.7"/>
<ellipse opacity="0.5" cx="89.7711" cy="138.643" rx="94.15" ry="94.2019" fill="#844AFF"/>
<path opacity="0.5" d="M150.139 51.3259C150.139 112.167 100.845 161.489 40.0369 161.489C-20.7709 161.489 -70.0654 112.167 -70.0654 51.3259C-70.0654 -9.5154 -20.7709 -58.837 40.0369 -58.837C100.845 -58.837 150.139 -9.5154 150.139 51.3259Z" fill="#FF5070"/>
<ellipse opacity="0.5" cx="119.486" cy="25.037" rx="64.4349" ry="64.4704" fill="#00FFC2"/>
</g>
<path fill-rule="evenodd" clip-rule="evenodd" d="M89.7284 103.979L88.6944 101.806L87.6619 103.979H89.7284ZM119.905 103.432C119.905 102.217 118.977 101.204 117.647 101.204C116.305 101.204 115.402 102.217 115.402 103.432C115.402 104.647 116.328 105.66 117.659 105.66C119.002 105.66 119.905 104.647 119.905 103.432ZM136.906 101.305V103.432H138.212C138.949 103.432 139.697 103.131 139.697 102.351C139.697 101.561 138.997 101.305 138.248 101.305H136.906ZM154.476 103.432C154.476 102.217 153.55 101.204 152.218 101.204C150.877 101.204 149.974 102.217 149.974 103.432C149.974 104.647 150.901 105.66 152.23 105.66C153.573 105.66 154.476 104.647 154.476 103.432ZM171.785 103.432C171.785 102.217 170.859 101.204 169.529 101.204C168.187 101.204 167.284 102.217 167.284 103.432C167.284 104.647 168.21 105.66 169.54 105.66C170.883 105.66 171.785 104.647 171.785 103.432ZM175.456 103.756V105.572H177.096C177.488 105.572 178.035 105.516 178.308 105.227C178.462 105.06 178.511 104.837 178.511 104.625C178.511 103.89 177.678 103.767 177.048 103.767H175.456V103.756ZM211.692 103.967V105.572H213.57C214.151 105.572 214.875 105.404 214.875 104.736C214.875 104.057 213.997 103.967 213.45 103.967H211.692ZM211.692 101.282V102.83H213.319C213.913 102.83 214.519 102.642 214.519 101.995C214.519 101.416 213.889 101.271 213.378 101.271H211.692V101.282ZM222.693 103.432C222.693 102.217 221.767 101.204 220.435 101.204C219.093 101.204 218.19 102.217 218.19 103.432C218.19 104.647 219.116 105.66 220.448 105.66C221.79 105.66 222.693 104.647 222.693 103.432ZM90.2634 105.115H87.1269L86.3662 106.708H85L88.1839 100.101H89.2294L92.4133 106.708H91.0112L90.2634 105.115ZM94.3978 103.366L97.6996 100.146H99.4225L96.3694 103.065L99.4584 106.708H97.8305L95.4663 103.911L94.3978 104.926V106.708H93.1151V100.135H94.3978V103.366ZM105.173 106.708H99.9215V100.135H101.206V105.549H104.329V100.135H105.612V105.549H106.468L106.325 108.045H105.173V106.708ZM108.488 104.602L111.909 100.146H113.025V106.719H111.742V102.263L108.333 106.719H107.204V100.146H108.488V104.602ZM114.095 103.432C114.095 101.538 115.64 100.045 117.672 100.045C119.715 100.045 121.224 101.538 121.224 103.432C121.224 105.326 119.679 106.82 117.647 106.82C115.604 106.82 114.095 105.326 114.095 103.432ZM123.588 102.83H126.747V100.146H128.032V106.719H126.747V104.001H123.588V106.719H122.292V100.146H123.575V102.83H123.588ZM130.715 101.293V102.83H134.232V103.979H130.715V105.572H134.696V106.719H129.421V100.146H134.648V101.293H130.715ZM136.906 104.58V106.708H135.622V100.135H138.319C139.151 100.135 140.018 100.369 140.553 100.992C140.874 101.371 141.016 101.839 141.016 102.329C141.016 103.834 139.674 104.569 138.2 104.569H136.906V104.58ZM143.154 102.83H146.314V100.146H147.598V106.719H146.314V104.001H143.154V106.719H141.87V100.146H143.154V102.83ZM148.666 103.432C148.666 101.538 150.211 100.045 152.243 100.045C154.286 100.045 155.795 101.538 155.795 103.432C155.795 105.326 154.25 106.82 152.218 106.82C150.176 106.82 148.666 105.326 148.666 103.432ZM158.159 101.293V102.83H161.675V103.979H158.159V105.572H162.138V106.719H156.865V100.146H162.079V101.293H158.159ZM165.964 103.432C165.964 101.538 167.508 100.045 169.54 100.045C171.584 100.045 173.092 101.538 173.092 103.432C173.092 105.326 171.548 106.82 169.517 106.82C167.485 106.82 165.964 105.326 165.964 103.432ZM175.456 101.293V102.619H177.084C177.904 102.619 178.819 102.809 179.365 103.422C179.674 103.767 179.805 104.19 179.805 104.647C179.805 105.103 179.674 105.549 179.365 105.906C178.83 106.519 177.951 106.708 177.143 106.708H174.162V100.135H179.342V101.282H175.456V101.293ZM189.203 106.708H180.756V100.135H182.038V105.549H184.556V100.135H185.841V105.549H188.347V100.135H189.63V105.549H190.486L190.343 108.045H189.19V106.708H189.203ZM192.516 101.293V102.83H196.034V103.979H192.516V105.572H196.497V106.719H191.233V100.146H196.449V101.293H192.516ZM200.548 106.82C198.517 106.82 197.032 105.316 197.032 103.432C197.032 101.549 198.54 100.045 200.571 100.045C201.688 100.045 202.461 100.379 203.257 101.093L203.459 101.271L202.603 102.141L202.402 101.961C201.867 101.483 201.32 101.204 200.571 101.204C199.241 101.204 198.362 102.229 198.362 103.432C198.362 104.625 199.254 105.66 200.571 105.66C201.379 105.66 201.89 105.371 202.461 104.858L202.662 104.68L203.519 105.538L203.328 105.716C202.532 106.463 201.7 106.82 200.548 106.82ZM206.072 101.293H203.91V100.146H209.53V101.293H207.367V106.708H206.072V101.293ZM215.149 103.276C215.766 103.577 216.183 104.057 216.183 104.802C216.183 105.148 216.088 105.483 215.885 105.772C215.386 106.485 214.424 106.719 213.557 106.719H210.409V100.146H213.426C214.092 100.146 214.828 100.29 215.315 100.759C215.648 101.082 215.814 101.472 215.814 101.928C215.814 102.496 215.576 102.954 215.149 103.276ZM216.871 103.432C216.871 101.538 218.416 100.045 220.448 100.045C222.491 100.045 224 101.538 224 103.432C224 105.326 222.454 106.82 220.424 106.82C218.38 106.82 216.871 105.326 216.871 103.432Z" fill="#444E59"/>
<mask id="mask0_39_3564" style="mask-type:luminance" maskUnits="userSpaceOnUse" x="85" y="69" width="139" height="24">
<path d="M85.7344 69H223.999V92.533H85.7344V69Z" fill="white"/>
</mask>
<g mask="url(#mask0_39_3564)">
<path d="M211.557 69.0416C211.582 70.4163 212.033 71.5022 212.886 72.275C213.777 73.0478 214.893 73.4572 216.221 73.4572C217.55 73.4572 218.666 73.0593 219.532 72.275C220.421 71.5022 220.861 70.4163 220.884 69.0416H217.847C217.823 70.0184 217.205 70.6217 216.197 70.6217C215.189 70.6217 214.571 70.0184 214.548 69.0416H211.557ZM212.245 91.9196L219.508 81.9034V91.9196H223.946V74.3621H220.09L212.958 84.2807V74.3621H208.519V91.9196H212.245ZM193.116 91.9196L200.379 81.9034V91.9196H204.818V74.3621H200.961L193.829 84.2807V74.3621H189.39V91.9196H193.116ZM174.736 91.9196V84.6182H181.25V91.9196H185.689V74.3621H181.25V80.6135H174.736V74.3621H170.297V91.9196H174.736ZM164.542 89.6141C166.275 87.8286 167.129 85.6682 167.129 83.1344C167.129 80.6005 166.262 78.4416 164.542 76.6547C162.809 74.8692 160.637 74.0002 158.026 74.0002C155.405 74.0002 153.233 74.8807 151.512 76.6547C149.779 78.4416 148.925 80.6005 148.925 83.1344C148.925 85.6682 149.791 87.8286 151.512 89.6141C153.244 91.3996 155.416 92.2686 158.026 92.2686C160.637 92.2815 162.809 91.3996 164.542 89.6141ZM154.764 86.7068C153.898 85.7774 153.483 84.5708 153.483 83.1473C153.483 81.7109 153.898 80.5158 154.764 79.5879C155.63 78.6585 156.71 78.1873 158.026 78.1873C159.333 78.1873 160.4 78.67 161.267 79.5879C162.133 80.5158 162.572 81.7224 162.572 83.1473C162.572 84.5823 162.133 85.7774 161.267 86.7068C160.4 87.6362 159.345 88.1059 158.026 88.1059C156.71 88.1059 155.63 87.6362 154.764 86.7068ZM132.621 91.9196V81.2038L136.952 88.4204L141.33 81.2038V91.9196H145.745V74.3621H141.353L136.964 81.1076L132.597 74.3621H128.183V91.9196H132.621ZM111.344 91.9196V81.2038L115.687 88.4204L120.054 81.2038V91.9196H124.468V74.3621H120.077L115.687 81.1076L111.321 74.3621H106.905V91.9196H111.344ZM95.181 79.901L96.9851 84.5952H93.3768L95.181 79.901ZM90.5183 91.9196L91.9778 88.2021H98.3856L99.8451 91.9196H104.615L97.3529 74.2544H93.0809L85.8184 91.9196H90.5183Z" fill="#444E59"/>
</g>
<path fill-rule="evenodd" clip-rule="evenodd" d="M30.1604 107.947H20L30.1604 90.3621V107.947Z" fill="#444E59"/>
<path fill-rule="evenodd" clip-rule="evenodd" d="M46.0518 87.2021H56.0213V97.1452L46.0518 87.2021Z" fill="#444E59"/>
<path fill-rule="evenodd" clip-rule="evenodd" d="M55.6865 107.947H37.9795V90.2997L55.6865 107.947Z" fill="#444E59"/>
<path fill-rule="evenodd" clip-rule="evenodd" d="M63.8398 90.2354L74.0003 107.947H63.8398V90.2354Z" fill="#444E59"/>
<path fill-rule="evenodd" clip-rule="evenodd" d="M56.0218 84.6285H43.473L38.043 79.1956H56.0218V84.6285Z" fill="#444E59"/>
<path fill-rule="evenodd" clip-rule="evenodd" d="M52.8833 71.1095L56.0214 76.5897V76.637H38.0908L41.2752 71.1095H52.8833Z" fill="#444E59"/>
<mask id="mask1_39_3564" style="mask-type:luminance" maskUnits="userSpaceOnUse" x="42" y="61" width="11" height="9">
<path d="M42.1348 61H52.0041V69.2279H42.1348V61Z" fill="white"/>
</mask>
<g mask="url(#mask1_39_3564)">
<path fill-rule="evenodd" clip-rule="evenodd" d="M47.102 61.0228L51.6897 69.0124H42.4854L47.102 61.0228Z" fill="#444E59"/>
</g>
<g clip-path="url(#clip1_39_3564)">
<path d="M226.648 32.7359C226.898 33.0489 227.086 33.4244 227.211 33.8C227.336 34.1756 227.398 34.6137 227.398 35.0519C227.398 35.49 227.336 35.9282 227.211 36.3037C227.086 36.6793 226.898 37.0548 226.648 37.3678C226.335 37.8059 226.397 38.4319 226.835 38.7448C227.273 39.0578 227.899 38.9952 228.212 38.557C228.587 38.0563 228.837 37.5556 229.087 36.9296C229.338 36.3037 229.4 35.6778 229.4 35.0519C229.4 34.4259 229.275 33.8 229.087 33.1741C228.9 32.6107 228.587 32.0474 228.212 31.5467C227.899 31.1085 227.273 31.0459 226.835 31.3589C226.397 31.6719 226.335 32.2978 226.648 32.7359Z" fill="#444E59"/>
<path d="M230.088 30.9207C230.839 32.11 231.277 33.5496 231.277 35.0519C231.277 36.5541 230.839 37.9937 230.088 39.183C229.776 39.6211 229.963 40.247 230.401 40.56C230.902 40.873 231.465 40.6852 231.777 40.247C232.716 38.7448 233.279 36.9922 233.279 35.0519C233.279 33.1741 232.716 31.3589 231.777 29.8567C231.465 29.4185 230.839 29.2307 230.401 29.5437C229.963 29.8567 229.776 30.42 230.088 30.9207Z" fill="#444E59"/>
<path d="M233.717 29.043C234.78 30.7956 235.343 32.8611 235.343 35.0519C235.343 37.2426 234.718 39.3082 233.717 41.0607C233.466 41.5615 233.592 42.1248 234.092 42.4378C234.593 42.6882 235.156 42.563 235.468 42.0622C236.719 39.9967 237.408 37.6181 237.408 35.0519C237.408 32.4856 236.719 30.107 235.468 28.0415C235.218 27.5407 234.593 27.4156 234.092 27.6659C233.592 27.9789 233.466 28.5422 233.717 29.043Z" fill="#444E59"/>
<path d="M237.345 27.1652C238.659 29.4811 239.472 32.1726 239.472 35.0519C239.472 37.9311 238.721 40.6226 237.345 42.9385C237.095 43.4393 237.22 44.0026 237.72 44.3156C238.221 44.5659 238.784 44.4407 239.097 43.94C240.598 41.3111 241.474 38.3067 241.474 35.0519C241.474 31.797 240.598 28.7926 239.097 26.1637C238.846 25.663 238.221 25.5378 237.72 25.7881C237.22 26.0385 237.095 26.6644 237.345 27.1652Z" fill="#444E59"/>
</g>
</g>
<defs>
<filter id="filter0_b_39_3564" x="-150" y="-150" width="569" height="469" filterUnits="userSpaceOnUse" color-interpolation-filters="sRGB">
<feFlood flood-opacity="0" result="BackgroundImageFix"/>
<feGaussianBlur in="BackgroundImageFix" stdDeviation="75"/>
<feComposite in2="SourceAlpha" operator="in" result="effect1_backgroundBlur_39_3564"/>
<feBlend mode="normal" in="SourceGraphic" in2="effect1_backgroundBlur_39_3564" result="shape"/>
</filter>
<filter id="filter1_f_39_3564" x="-270.065" y="-348.344" width="965.526" height="851.293" filterUnits="userSpaceOnUse" color-interpolation-filters="sRGB">
<feFlood flood-opacity="0" result="BackgroundImageFix"/>
<feBlend mode="normal" in="SourceGraphic" in2="BackgroundImageFix" result="shape"/>
<feGaussianBlur stdDeviation="100" result="effect1_foregroundBlur_39_3564"/>
</filter>
<linearGradient id="paint0_linear_39_3564" x1="-2.00421e-06" y1="84.5" x2="269" y2="84.5" gradientUnits="userSpaceOnUse">
<stop stop-color="#DC9FD9"/>
<stop offset="1" stop-color="#FFBAC7" stop-opacity="0.26"/>
</linearGradient>
<clipPath id="clip0_39_3564">
<rect width="269" height="169" rx="20" fill="white"/>
</clipPath>
<clipPath id="clip1_39_3564">
<rect width="20.0186" height="20.0296" fill="white" transform="translate(223.958 25.037)"/>
</clipPath>
</defs>
</svg>
