<svg width="437" height="394" viewBox="0 0 437 394" fill="none" xmlns="http://www.w3.org/2000/svg">
<path d="M399.109 181.625H342.891C342.192 181.625 341.625 182.192 341.625 182.891L341.625 239.109C341.625 239.808 342.192 240.375 342.891 240.375H399.109C399.808 240.375 400.375 239.808 400.375 239.109V182.891C400.375 182.192 399.808 181.625 399.109 181.625Z" fill="#10B981"/>
<path fill-rule="evenodd" clip-rule="evenodd" d="M346.552 85.3617H47.3259V59.8906C47.3259 54.3653 52.0415 49.8855 57.8575 49.8855H336.02C341.837 49.8855 346.552 54.3653 346.552 59.8906V85.3617Z" fill="#253368"/>
<path fill-rule="evenodd" clip-rule="evenodd" d="M336.02 343.732H57.8575C52.0415 343.732 47.3259 339.046 47.3259 333.265V84.0281H346.552V333.265C346.552 339.046 341.837 343.732 336.02 343.732Z" fill="#E4EBF7"/>
<path fill-rule="evenodd" clip-rule="evenodd" d="M71.8748 67.5258C71.8748 71.1187 68.9437 74.0316 65.3281 74.0316C61.7129 74.0316 58.7822 71.1187 58.7822 67.5258C58.7822 63.933 61.7129 61.02 65.3281 61.02C68.9437 61.02 71.8748 63.933 71.8748 67.5258Z" fill="#FF7946"/>
<path fill-rule="evenodd" clip-rule="evenodd" d="M94.7868 67.5258C94.7868 71.1187 91.856 74.0316 88.2403 74.0316C84.625 74.0316 81.6942 71.1187 81.6942 67.5258C81.6942 63.933 84.625 61.02 88.2403 61.02C91.856 61.02 94.7868 63.933 94.7868 67.5258Z" fill="#FAAD14"/>
<path fill-rule="evenodd" clip-rule="evenodd" d="M120.972 67.5258C120.972 71.1187 118.041 74.0316 114.425 74.0316C110.81 74.0316 107.879 71.1187 107.879 67.5258C107.879 63.933 110.81 61.02 114.425 61.02C118.041 61.02 120.972 63.933 120.972 67.5258Z" fill="#7CB305"/>
<path fill-rule="evenodd" clip-rule="evenodd" d="M80.0636 309.867C78.2523 309.867 76.7845 308.398 76.7845 306.586V116.348C76.7845 114.536 78.2523 113.066 80.0636 113.066H317.355C319.166 113.066 320.634 114.536 320.634 116.348V306.586C320.634 308.398 319.166 309.867 317.355 309.867H80.0636Z" fill="white"/>
<path fill-rule="evenodd" clip-rule="evenodd" d="M217.164 229.322V281.112C217.164 284.036 214.758 286.431 211.819 286.431H111.664C108.725 286.431 106.317 284.036 106.317 281.112V229.322C106.317 226.395 108.725 224.003 111.664 224.003H211.819C214.758 224.003 217.164 226.395 217.164 229.322Z" fill="#FAAD14"/>
<path fill-rule="evenodd" clip-rule="evenodd" d="M293.191 197.493C293.191 200.417 290.786 202.812 287.847 202.812H111.664C108.725 202.812 106.317 200.417 106.317 197.493V145.7C106.317 142.776 108.725 140.384 111.664 140.384H287.847C290.786 140.384 293.191 142.776 293.191 145.7V197.493Z" fill="#10B981"/>
<path fill-rule="evenodd" clip-rule="evenodd" d="M293.061 281.112C293.061 284.036 290.655 286.431 287.716 286.431H242.182C239.242 286.431 236.837 284.036 236.837 281.112V229.322C236.837 226.395 239.242 224.003 242.182 224.003H287.716C290.655 224.003 293.061 226.395 293.061 229.322V281.112Z" fill="#FF7946"/>
<path d="M356 152.4C394.881 152.4 426.4 120.881 426.4 82C426.4 43.1189 394.881 11.5996 356 11.5996C317.119 11.5996 285.6 43.1189 285.6 82C285.6 120.881 317.119 152.4 356 152.4Z" fill="#10B981"/>
<path d="M356 147.372C392.104 147.372 421.372 118.104 421.372 82C421.372 45.8961 392.104 16.6282 356 16.6282C319.896 16.6282 290.628 45.8961 290.628 82C290.628 118.104 319.896 147.372 356 147.372Z" fill="#A3B5D6"/>
<path d="M356 145.015C390.802 145.015 419.015 116.802 419.015 82C419.015 47.198 390.802 18.9854 356 18.9854C321.198 18.9854 292.985 47.198 292.985 82C292.985 116.802 321.198 145.015 356 145.015Z" fill="white"/>
<path d="M356 41.9158C357.389 41.9158 358.514 43.0415 358.514 44.4301V80.1567H353.486V44.4301C353.486 43.0415 354.611 41.9158 356 41.9158Z" fill="#253368"/>
<path d="M381.602 81.9999C381.602 83.3885 380.476 84.5142 379.088 84.5142H356V79.4856H379.088C380.476 79.4856 381.602 80.6113 381.602 81.9999Z" fill="#253368"/>
<path d="M356 87.8144C359.211 87.8144 361.814 85.2113 361.814 82.0001C361.814 78.7889 359.211 76.1858 356 76.1858C352.789 76.1858 350.186 78.7889 350.186 82.0001C350.186 85.2113 352.789 87.8144 356 87.8144Z" fill="#FF7946"/>
<path d="M358.508 29.1996C358.508 27.811 357.382 26.6853 355.994 26.6853C354.605 26.6853 353.479 27.811 353.479 29.1996V34.2282C353.479 35.6168 354.605 36.7425 355.994 36.7425C357.382 36.7425 358.508 35.6168 358.508 34.2282V29.1996Z" fill="#E4EBF7"/>
<path d="M316.882 42.8898C317.864 41.908 319.456 41.908 320.438 42.8898L323.994 46.4456C324.976 47.4275 324.976 49.0195 323.994 50.0014C323.012 50.9833 321.42 50.9833 320.438 50.0014L316.882 46.4456C315.9 45.4637 315.9 43.8717 316.882 42.8898Z" fill="#E4EBF7"/>
<path d="M300.685 82.0062C300.685 80.6176 301.811 79.4919 303.2 79.4919H308.228C309.617 79.4919 310.743 80.6176 310.743 82.0062C310.743 83.3948 309.617 84.5205 308.228 84.5205H303.2C301.811 84.5205 300.685 83.3948 300.685 82.0062Z" fill="#E4EBF7"/>
<path d="M316.891 121.118C315.909 120.136 315.909 118.545 316.891 117.563L320.446 114.007C321.428 113.025 323.02 113.025 324.002 114.007C324.984 114.989 324.984 116.581 324.002 117.563L320.446 121.118C319.465 122.1 317.873 122.1 316.891 121.118Z" fill="#E4EBF7"/>
<path d="M353.492 134.8C353.492 136.189 354.618 137.315 356.006 137.315C357.395 137.315 358.521 136.189 358.521 134.8V129.772C358.521 128.383 357.395 127.257 356.006 127.257C354.618 127.257 353.492 128.383 353.492 129.772V134.8Z" fill="#E4EBF7"/>
<path d="M395.118 121.109C394.136 122.091 392.544 122.091 391.562 121.109L388.006 117.553C387.024 116.571 387.024 114.979 388.006 113.997C388.988 113.015 390.58 113.015 391.562 113.997L395.118 117.553C396.099 118.535 396.099 120.127 395.118 121.109Z" fill="#E4EBF7"/>
<path d="M411.315 81.9938C411.315 83.3824 410.189 84.5081 408.8 84.5081H403.772C402.383 84.5081 401.257 83.3824 401.257 81.9938C401.257 80.6052 402.383 79.4795 403.772 79.4795H408.8C410.189 79.4795 411.315 80.6052 411.315 81.9938Z" fill="#E4EBF7"/>
<path d="M395.11 42.8829C396.092 43.8648 396.092 45.4567 395.11 46.4386L391.554 49.9944C390.572 50.9763 388.98 50.9763 387.998 49.9944C387.016 49.0125 387.016 47.4205 387.998 46.4386L391.554 42.8829C392.536 41.901 394.128 41.901 395.11 42.8829Z" fill="#E4EBF7"/>
</svg>
