<svg width="20" height="20" viewBox="0 0 20 20" fill="none" xmlns="http://www.w3.org/2000/svg">
<path d="M16.6508 2.33333H14.8571V0.746032C14.8571 0.333333 14.5238 0 14.1111 0C13.6984 0 13.3651 0.333333 13.3651 0.746032V2.33333H6.65079V0.746032C6.65079 0.333333 6.31746 0 5.90476 0C5.49206 0 5.15873 0.333333 5.15873 0.746032V2.33333H3.34921C1.50794 2.33333 0 3.84127 0 5.68254V16.6508C0 18.5079 1.50794 20 3.34921 20H16.6508C18.5079 20 20 18.4921 20 16.6508V5.68254C20 3.84127 18.5079 2.33333 16.6508 2.33333ZM3.34921 3.84127H5.14286V4.7619C5.14286 5.1746 5.47619 5.50794 5.88889 5.50794C6.30159 5.50794 6.63492 5.1746 6.63492 4.7619V3.84127H13.3333V4.7619C13.3333 5.1746 13.6667 5.50794 14.0794 5.50794C14.4921 5.50794 14.8254 5.1746 14.8254 4.7619V3.84127H16.619C17.6349 3.84127 18.4762 4.66667 18.4762 5.69841V8.33333H1.50794V5.68254C1.50794 4.66667 2.33333 3.84127 3.34921 3.84127ZM16.6508 18.5079H3.34921C2.33333 18.5079 1.49206 17.6825 1.49206 16.6508V9.8254H18.4921V16.6667C18.5079 17.6667 17.6825 18.5079 16.6508 18.5079Z" fill="#185AC5"/>
</svg>
