<svg width="20" height="20" viewBox="0 0 20 20" fill="none" xmlns="http://www.w3.org/2000/svg">
<path d="M10.75 5.41666C10.75 5.00244 10.4142 4.66666 10 4.66666C9.58579 4.66666 9.25 5.00244 9.25 5.41666V9.99999C9.25 10.2361 9.36115 10.4583 9.55 10.6L12.8833 13.1C13.2147 13.3485 13.6848 13.2814 13.9333 12.95C14.1819 12.6186 14.1147 12.1485 13.7833 11.9L10.75 9.62499V5.41666Z" fill="#185AC5"/>
<path fill-rule="evenodd" clip-rule="evenodd" d="M20 10C20 15.5228 15.5228 20 10 20C4.47715 20 0 15.5228 0 10C0 4.47715 4.47715 0 10 0C15.5228 0 20 4.47715 20 10ZM18.5 10C18.5 14.6944 14.6944 18.5 10 18.5C5.30558 18.5 1.5 14.6944 1.5 10C1.5 5.30558 5.30558 1.5 10 1.5C14.6944 1.5 18.5 5.30558 18.5 10Z" fill="#185AC5"/>
</svg>
