<svg width="28" height="28" viewBox="0 0 28 28" fill="none" xmlns="http://www.w3.org/2000/svg">
<path d="M22.5467 6.74075C23.3332 7.9178 23.3332 9.55634 23.3332 12.8334C23.3332 16.1105 23.3332 17.749 22.5467 18.9261C22.2062 19.4356 21.7687 19.8731 21.2592 20.2136C20.2309 20.9007 18.8505 20.9875 16.3332 20.9985V21.0001L15.0433 23.5798C14.6134 24.4396 13.3863 24.4396 12.9563 23.5798L11.6665 21.0001V20.9985C9.14918 20.9875 7.76875 20.9007 6.74051 20.2136C6.23096 19.8731 5.79345 19.4356 5.45298 18.9261C4.6665 17.749 4.6665 16.1105 4.6665 12.8334C4.6665 9.55634 4.6665 7.9178 5.45298 6.74075C5.79345 6.2312 6.23096 5.7937 6.74051 5.45322C7.91755 4.66675 9.55609 4.66675 12.8332 4.66675H15.1665C18.4436 4.66675 20.0821 4.66675 21.2592 5.45322C21.7687 5.7937 22.2062 6.2312 22.5467 6.74075Z" fill="#7C7C7C" stroke="#7C7C7C" stroke-linecap="round" stroke-linejoin="round"/>
<path d="M10.5 10.5L17.5 10.5" stroke="#222222" stroke-linecap="round" stroke-linejoin="round"/>
<path d="M10.5 15.1667H14" stroke="#222222" stroke-linecap="round" stroke-linejoin="round"/>
</svg>
