<svg width="28" height="28" viewBox="0 0 28 28" fill="none" xmlns="http://www.w3.org/2000/svg">
<path d="M11.8335 24.4999H16.1668C18.9953 24.4999 20.4095 24.4999 21.2881 23.6212C22.1668 22.7425 22.1668 21.3283 22.1668 18.4999V9.49976C22.1668 6.67133 22.1668 5.25712 21.2881 4.37844C20.4095 3.49976 18.9952 3.49976 16.1668 3.49976H11.8308C9.00417 3.49976 7.59086 3.49976 6.71218 4.37844C5.8335 5.25712 5.8335 6.67133 5.8335 9.49976V18.4999C5.8335 21.3283 5.8335 22.7425 6.71218 23.6212C7.59086 24.4999 9.00507 24.4999 11.8335 24.4999Z" stroke="white" stroke-linecap="round"/>
<path d="M10.5 10.5L15.1667 10.5" stroke="white" stroke-linecap="round"/>
<path d="M10.5 15.1667L17.5 15.1667" stroke="white" stroke-linecap="round"/>
<path d="M24.5 7L17.5 7" stroke="white" stroke-linecap="round"/>
<path d="M21 3.5L21 10.5" stroke="white" stroke-linecap="round"/>
<path d="M10.5 19.8333L15.1667 19.8333" stroke="white" stroke-linecap="round"/>
</svg>
